<svg xmlns="http://www.w3.org/2000/svg" width="53.56" height="53.56" viewBox="0 0 53.56 53.56">
  <path id="Union_1" data-name="Union 1" d="M16.051,50.495a26.306,26.306,0,1,1,30.481-7.463l2.193,8.183L39.8,48.823a26.34,26.34,0,0,1-23.748,1.671ZM23.3,18.512a4.265,4.265,0,0,0-.678,2.99l.03.206a3.426,3.426,0,0,1,.03.737.182.182,0,0,1-.148.206c-.293.02-.442.208-.442.56a2.119,2.119,0,0,0,.176.854l.089.236a3.591,3.591,0,0,0,.118.412l.059.206a1.172,1.172,0,0,0,.221.442.555.555,0,0,0,.427.147c.077,0,.137.049.176.148a8.149,8.149,0,0,0,.56,1.8,1.721,1.721,0,0,1-.088,1.414.942.942,0,0,1-.648.5c-.261.121-.638.289-1.12.5-.657.29-1.152.517-1.472.677a7.3,7.3,0,0,0-.766.472,2.211,2.211,0,0,0-.854,1.149,6.066,6.066,0,0,0-.177,2.857,1.587,1.587,0,0,0,1.149,1.267,9.831,9.831,0,0,0,1.944.324c.591.059,1.493.108,2.68.148a.926.926,0,0,1,.266.058H28.4l2.239-.148a13.152,13.152,0,0,0,2.533-.324,1.714,1.714,0,0,0,1-.544,1.944,1.944,0,0,0,.383-1.076,7.724,7.724,0,0,0-.265-2.592,1.946,1.946,0,0,0-.884-1.178A13.126,13.126,0,0,0,31.317,29.9l-.707-.324a3.074,3.074,0,0,1-.383-.147,1.593,1.593,0,0,1-.84-.84,1.541,1.541,0,0,1,.044-1.193,9.132,9.132,0,0,0,.56-1.708c0-.122.052-.181.158-.181a.3.3,0,0,1,.048,0,.564.564,0,0,0,.56-.441l.442-1.444a1.231,1.231,0,0,0,.029-.6c-.04-.225-.158-.344-.353-.354a.265.265,0,0,1-.206-.084.272.272,0,0,1-.03-.225l.03-.325c.019-.289.038-.508.059-.648a4.006,4.006,0,0,0-.265-2.091,4.166,4.166,0,0,0-1.252-1.679,3.849,3.849,0,0,0-1.929-.825.877.877,0,0,1-.148-.029l-.059-.03h-.854a.361.361,0,0,1-.265.088h-.148A4.04,4.04,0,0,0,23.3,18.512ZM14.35,23.564a.557.557,0,0,0-.088.442,6.8,6.8,0,0,0,.412,1.444.325.325,0,0,0,.324.236.232.232,0,0,1,.266.206,7.438,7.438,0,0,0,.412,1.355,1.156,1.156,0,0,1,.03.913,1.3,1.3,0,0,1-.678.649l-.442.205c-.683.274-1.2.5-1.532.678a2.3,2.3,0,0,0-1.444,2,.558.558,0,0,1-.059.294v.973c.039.019.059.068.059.147a1.212,1.212,0,0,0,.913,1.06,3.7,3.7,0,0,0,.942.206,31.386,31.386,0,0,0,3.182.206l1.178.03c.1,0,.162-.019.192-.059a.353.353,0,0,0,.044-.206,4.624,4.624,0,0,1,0-1.061l.03-.265a4.76,4.76,0,0,1,.56-1.709,2.929,2.929,0,0,1,1.3-1.178c.566-.293,1.062-.531,1.472-.706l.088-.059a.3.3,0,0,0,.207-.118l-.442-.176a6.661,6.661,0,0,1-.619-.294,1.118,1.118,0,0,1-.648-1.5,9.49,9.49,0,0,0,.442-1.415c.041-.119.1-.176.177-.176a.42.42,0,0,0,.442-.354l.353-1.148a.57.57,0,0,0,0-.442.376.376,0,0,0-.147-.236.3.3,0,0,0-.177-.066.267.267,0,0,0-.059.007.635.635,0,0,1-.2.048.085.085,0,0,1-.079-.033.469.469,0,0,1-.015-.28,9.749,9.749,0,0,0,.118-1.266,2.883,2.883,0,0,0-.5-1.651,3.083,3.083,0,0,0-2.519-1.339,3.14,3.14,0,0,0-.515.044,3,3,0,0,0-1.8,1.06,2.85,2.85,0,0,0-.678,1.944,8.868,8.868,0,0,0,.089,1.266v.03a.451.451,0,0,1,.014.192c-.007.035-.036.053-.088.053a.409.409,0,0,1-.074-.009,1.128,1.128,0,0,0-.193-.02A.344.344,0,0,0,14.35,23.564Zm19.928-3.446a3.321,3.321,0,0,0-1.311,1.208A4.875,4.875,0,0,0,32.318,23l-.117.677a6.4,6.4,0,0,1-.383,1.621,1.19,1.19,0,0,1-.972.824c-.117.02-.182.054-.192.1a.263.263,0,0,0,.074.192,1.473,1.473,0,0,0,.648.648,6.612,6.612,0,0,0,2.032.619l.089.029c.1.02.157.049.176.088a1.273,1.273,0,0,1,.148.884.822.822,0,0,1-.56.648c-.157.059-.4.168-.707.324l.088.089.442.206a5.388,5.388,0,0,1,1.179.8,2.64,2.64,0,0,1,.707,1.237,8.067,8.067,0,0,1,.265,2.062.4.4,0,0,0,.074.28.273.273,0,0,0,.194.053,1.157,1.157,0,0,0,.13-.009,7.515,7.515,0,0,1,.766-.029h.81a16.834,16.834,0,0,0,2.724-.251,1.141,1.141,0,0,0,1.016-.958.052.052,0,0,1,.059-.058v-.824l-.236-1a1.5,1.5,0,0,0-.707-.942,9.71,9.71,0,0,0-1.208-.59l-.451-.2-.013-.005-.331-.148a1.09,1.09,0,0,1-.59-.574,1.147,1.147,0,0,1,.03-.84,1.7,1.7,0,0,1,.148-.176.361.361,0,0,1,.176-.088,6.635,6.635,0,0,0,1.562-.412,2.678,2.678,0,0,0,1.031-.766.28.28,0,0,0,.074-.207c-.01-.059-.073-.107-.192-.147a1.541,1.541,0,0,1-.707-.56,3.539,3.539,0,0,1-.59-1.8l-.058-.472a8.866,8.866,0,0,0-.265-1.413A2.959,2.959,0,0,0,37.651,20.5,3.416,3.416,0,0,0,36,19.823a3.193,3.193,0,0,0-.4-.026A2.9,2.9,0,0,0,34.277,20.118Z" transform="translate(0.5 0.5)" fill="#fff" stroke="rgba(0,0,0,0)" stroke-miterlimit="10" stroke-width="1"/>
</svg>
